<?xml version="1.0" encoding="UTF-8" standalone="no"?>
<!-- Created with Inkscape (http://www.inkscape.org/) -->

<svg
   viewBox="0 0 297 297"
   version="1.1"
   id="svg5"
   inkscape:version="1.2.2 (b0a8486541, 2022-12-01)"
   sodipodi:docname="icon.svg"
   xmlns:inkscape="http://www.inkscape.org/namespaces/inkscape"
   xmlns:sodipodi="http://sodipodi.sourceforge.net/DTD/sodipodi-0.dtd"
   xmlns="http://www.w3.org/2000/svg"
   xmlns:svg="http://www.w3.org/2000/svg">
  <sodipodi:namedview
     id="namedview7"
     pagecolor="#505050"
     bordercolor="#ffffff"
     borderopacity="1"
     inkscape:showpageshadow="0"
     inkscape:pageopacity="0"
     inkscape:pagecheckerboard="1"
     inkscape:deskcolor="#505050"
     inkscape:document-units="mm"
     showgrid="false"
     inkscape:zoom="1.6160055"
     inkscape:cx="269.49165"
     inkscape:cy="127.16541"
     inkscape:window-width="1910"
     inkscape:window-height="1038"
     inkscape:window-x="0"
     inkscape:window-y="0"
     inkscape:window-maximized="1"
     inkscape:current-layer="layer1" />
  <defs
     id="defs2" />
  <g
     inkscape:label="Layer 1"
     inkscape:groupmode="layer"
     id="layer1">
    <g
       id="g341"
       transform="matrix(0.99191673,0,0,0.99191673,11.473633,-1.9909047)">
      <g
         id="g2546"
         transform="matrix(1.5635145,0,0,1.675411,47.057184,-24.334348)">
        <g
           id="g5527"
           transform="matrix(0.93808737,0,0,1,1.1125818,0)">
          <path
             d="m 138.29032,29.873605 c 0,-7.372813 -5.99592,-13.368735 -13.36873,-13.368735 H 31.339178 c -7.372813,0 -13.368988,5.995922 -13.368988,13.368735 v 93.582405 c 0,7.37307 5.996175,13.36899 13.368988,13.36899 h 93.582412 c 7.37281,0 13.36873,-5.99592 13.36873,-13.36899 z"
             id="path9"
             style="fill:#008063;fill-opacity:1;stroke-width:6.68444"
             sodipodi:nodetypes="sssssssss" />
          <path
             d="M 44.708165,43.242593 H 58.063763 V 56.61158 H 44.708165 Z m 26.737723,0 H 111.5526 V 56.61158 H 71.445888 Z M 44.708165,69.980315 H 58.063763 V 83.349303 H 44.708165 Z m 26.737723,0 H 111.5526 V 83.349303 H 71.445888 Z M 44.708165,96.71829 h 13.355598 v 13.36873 H 44.708165 Z m 26.737723,0 H 111.5526 v 13.36873 H 71.445888 Z"
             id="path11"
             style="fill:#ffffff;fill-opacity:1;stroke-width:6.68444" />
        </g>
      </g>
      <path
         d="M 136.21062,77.009349 H 46.967964 C 34.646132,77.00926 24.657224,86.997975 24.657069,99.319813 V 277.80601 c 1.64e-4,12.32182 9.98907,22.31054 22.310895,22.31045 H 180.83239 c 12.32166,-1.7e-4 22.31027,-9.9888 22.31044,-22.31045 V 143.94157 Z"
         id="path127"
         style="fill:#980000;fill-opacity:1;stroke-width:11.1553"
         sodipodi:nodetypes="ccccccccc" />
      <path
         d="m 82.773104,239.04017 c -3.448849,3.23381 -8.534015,4.68543 -14.457342,4.68543 -1.148911,0.008 -2.297064,-0.0613 -3.436221,-0.21079 v 15.9073 H 54.906535 V 215.5146 c 4.500733,-0.67145 9.048423,-0.97742 13.598523,-0.91493 6.213419,0 10.631163,1.18054 13.609472,3.55848 2.833309,2.25146 4.752088,5.9457 4.752088,10.29639 -0.01043,4.37305 -1.463012,8.06519 -4.09393,10.57508 z m 42.468556,15.11549 c -4.68548,3.89157 -11.81381,5.74545 -20.52573,5.74545 -5.220935,0 -8.913493,-0.3373 -11.423405,-0.67039 v -43.69547 c 4.502322,-0.65772 9.048605,-0.96781 13.598525,-0.92756 8.44465,0 13.93286,1.51783 18.21653,4.75211 4.6298,3.43617 7.53013,8.91305 7.53013,16.77752 0,8.51167 -3.11156,14.39075 -7.39605,18.01584 z m 41.21888,-30.95577 h -17.08997 v 10.1623 h 15.97477 v 8.1883 h -15.97477 v 17.89314 h -10.10668 v -44.49905 h 27.19665 z m -33.46616,-64.36667 h -11.15521 v -55.77698 l 55.77702,55.77698 z M 69.040944,222.1956 c -2.053294,0 -3.436219,0.21081 -4.148744,0.42161 v 13.14106 c 0.847441,0.21082 1.909931,0.25296 3.36873,0.25296 5.343191,0 8.633946,-2.69836 8.633946,-7.26196 0,-4.08129 -2.833292,-6.53725 -7.853098,-6.53725 z m 38.898666,0.12651 c -2.23036,0 -3.68073,0.21082 -4.54043,0.42162 v 29.11584 c 0.86013,0.21079 2.24302,0.21079 3.49102,0.21079 9.11374,0.0843 15.04849,-4.9536 15.04849,-15.57337 0.0844,-9.25879 -5.3432,-14.14495 -13.99991,-14.14495 z"
         style="fill:#ffffff;stroke-width:11.1553"
         id="path1751" />
    </g>
  </g>
</svg>
