<?xml version="1.0" encoding="UTF-8" standalone="no"?>
<!-- Created with Inkscape (http://www.inkscape.org/) -->

<svg
   viewBox="0 0 297 297"
   version="1.1"
   id="svg5"
   inkscape:version="1.2.2 (b0a8486541, 2022-12-01)"
   sodipodi:docname="test.svg"
   xmlns:inkscape="http://www.inkscape.org/namespaces/inkscape"
   xmlns:sodipodi="http://sodipodi.sourceforge.net/DTD/sodipodi-0.dtd"
   xmlns="http://www.w3.org/2000/svg"
   xmlns:svg="http://www.w3.org/2000/svg">
  <sodipodi:namedview
     id="namedview7"
     pagecolor="#505050"
     bordercolor="#ffffff"
     borderopacity="1"
     inkscape:showpageshadow="0"
     inkscape:pageopacity="0"
     inkscape:pagecheckerboard="1"
     inkscape:deskcolor="#505050"
     inkscape:document-units="mm"
     showgrid="false"
     inkscape:zoom="0.5327966"
     inkscape:cx="503.94466"
     inkscape:cy="383.82377"
     inkscape:window-width="1910"
     inkscape:window-height="1038"
     inkscape:window-x="0"
     inkscape:window-y="0"
     inkscape:window-maximized="1"
     inkscape:current-layer="layer1" />
  <defs
     id="defs2" />
  <g
     inkscape:label="Layer 1"
     inkscape:groupmode="layer"
     id="layer1">
    <g
       id="g2546"
       transform="matrix(1.406978,0,0,1.5076716,23.232457,-11.785482)">
      <g
         id="g5527"
         transform="matrix(0.93808737,0,0,1,1.1125818,0)">
        <path
           d="m 138.29032,29.873605 c 0,-7.372813 -5.99592,-13.368735 -13.36873,-13.368735 H 31.339178 c -7.372813,0 -13.368988,5.995922 -13.368988,13.368735 v 93.582405 c 0,7.37307 5.996175,13.36899 13.368988,13.36899 h 93.582412 c 7.37281,0 13.36873,-5.99592 13.36873,-13.36899 z"
           id="path9"
           style="fill:#008063;fill-opacity:1;stroke-width:6.68444"
           sodipodi:nodetypes="sssssssss" />
        <path
           d="M 44.708165,43.242593 H 58.063763 V 56.61158 H 44.708165 Z m 26.737723,0 H 111.5526 V 56.61158 H 71.445888 Z M 44.708165,69.980315 H 58.063763 V 83.349303 H 44.708165 Z m 26.737723,0 H 111.5526 V 83.349303 H 71.445888 Z M 44.708165,96.71829 h 13.355598 v 13.36873 H 44.708165 Z m 26.737723,0 H 111.5526 v 13.36873 H 71.445888 Z"
           id="path11"
           style="fill:#ffffff;fill-opacity:1;stroke-width:6.68444" />
      </g>
    </g>
    <path
       d="M 103.46,79.411853 H 23.15217 C 12.063979,79.411772 3.0751434,88.400434 3.0750042,99.488629 V 260.10509 c 1.472e-4,11.08818 8.9889798,20.07684 20.0771658,20.07676 h 120.46214 c 11.08804,-1.5e-4 20.07661,-8.98874 20.07676,-20.07676 V 139.64293 Z"
       id="path127"
       style="fill:#980000;fill-opacity:1;stroke-width:10.0385"
       sodipodi:nodetypes="ccccccccc" />
    <path
       d="m 55.372558,225.22041 c -3.103556,2.91006 -7.679604,4.21634 -13.009897,4.21634 -1.033884,0.008 -2.067086,-0.0552 -3.092192,-0.18968 v 14.31468 h -8.974525 v -39.51156 c 4.050127,-0.60423 8.142509,-0.87956 12.237061,-0.82333 5.591342,0 9.566788,1.06235 12.246914,3.20221 2.549643,2.02604 4.276317,5.35043 4.276317,9.26553 -0.0094,3.93523 -1.316538,7.25772 -3.684053,9.51632 z m 38.216671,13.60216 c -4.216376,3.50195 -10.631031,5.17022 -18.470728,5.17022 -4.698221,0 -8.021086,-0.30353 -10.27971,-0.60327 v -39.32075 c 4.051557,-0.59187 8.14267,-0.87091 12.23706,-0.83469 7.599184,0 12.537932,1.36586 16.392721,4.27633 4.166271,3.09215 6.776228,8.02069 6.776228,15.09778 0,7.6595 -2.800033,12.94997 -6.655571,16.21213 z M 130.68135,210.96604 H 115.3024 v 9.14487 h 14.3754 v 7.3685 h -14.3754 v 16.10171 h -9.09482 v -40.04388 h 24.47377 z M 100.56577,153.04366 H 90.527397 v -50.19269 l 50.192713,50.19269 z M 43.015239,210.0623 c -1.847722,0 -3.092191,0.1897 -3.733379,0.3794 v 11.82539 c 0.762597,0.18972 1.718712,0.22764 3.031459,0.22764 4.808239,0 7.769529,-2.4282 7.769529,-6.5349 0,-3.67269 -2.549627,-5.88275 -7.066859,-5.88275 z m 35.004198,0.11384 c -2.007065,0 -3.312226,0.18971 -4.085852,0.37941 v 26.20081 c 0.774014,0.18969 2.018456,0.18969 3.141504,0.18969 8.201285,0.0759 13.541859,-4.45766 13.541859,-14.0142 0.0759,-8.33181 -4.808251,-12.72877 -12.598261,-12.72877 z"
       style="fill:#ffffff;stroke-width:10.0385"
       id="path1751" />
  </g>
</svg>
